# xmcd
#
# Track frame offsets: 
#        150
#        13257
#        24757
#        35090
#        47197
#        57365
#        74217
#        86877
#        99162
#        109795
#        127195
#        139240
#        149425
#        160720
#        173155
#        185820
#
# Disc length: 2627 seconds
#
# Revision: 0
# Processed by: cddbd v1.4PL0 Copyright (c) Steve Scherf et al.
# Submitted via: ExactAudioCopy v0.90b3
#
DISCID=f00a4110
DTITLE=Eddy Arnold - Looking Back
DYEAR=1900
DGENRE=Country
TTITLE0=Half As Much
TTITLE1=Baby, That's Living
TTITLE2=Here Comes Heaven
TTITLE3=Nothing But Time
TTITLE4=Gentle On My Mind
TTITLE5=Little Green Apples
TTITLE6=Faded Love
TTITLE7=I Wish I Didn't Love You So
TTITLE8=Lay Some Happiness On Me
TTITLE9=Honey
TTITLE10=The Other Side Of Lonely
TTITLE11=New World In The Morning
TTITLE12=Here Comes The Rain, Baby
TTITLE13=It's Such A Pretty World Today
TTITLE14=Lonely Street
TTITLE15=What A Wonderful World
EXTD=
EXTT0=
EXTT1=
EXTT2=
EXTT3=
EXTT4=
EXTT5=
EXTT6=
EXTT7=
EXTT8=
EXTT9=
EXTT10=
EXTT11=
EXTT12=
EXTT13=
EXTT14=
EXTT15=
PLAYORDER=
